Coordinates
version=1
nRows=14
nColumns=24
inDegrees=yes

Units are S.I. units (second, meters, Newtons, ...)
Angles are in degrees.

endheader
time	pelvis_tilt	pelvis_list	pelvis_rotation	pelvis_tx	pelvis_ty	pelvis_tz	hip_flexion_r	hip_adduction_r	hip_rotation_r	knee_angle_r	ankle_angle_r	subtalar_angle_r	mtp_angle_r	hip_flexion_l	hip_adduction_l	hip_rotation_l	knee_angle_l	ankle_angle_l	subtalar_angle_l	mtp_angle_l	lumbar_extension	lumbar_bending	lumbar_rotation
      4.92000000	      0.11717988	     -5.07585762	     -8.27158419	      1.47102019	      0.91936394	     -0.21974564	    -15.05421733	      8.26560213	     -0.05338953	    -15.81349675	     20.10957788	      8.35677867	      0.00000000	     23.79759705	     -3.24211798	     -2.72497562	     -4.70190919	      0.86552564	    -14.78188204	      0.00000000	    -17.94079727	      3.66490315	      7.15355651
      4.93000000	      0.24626248	     -4.63966388	     -8.10732845	      1.48634467	      0.91907777	     -0.22062633	    -15.06519020	      7.48011854	     -0.85011643	    -17.57771581	     18.79463759	      8.97839005	      0.00000000	     23.84377769	     -2.48035541	     -1.72566927	     -6.44837217	     -0.18862640	    -15.62632908	      0.00000000	    -17.87096015	      3.20019356	      6.91142065
      4.94000000	      0.36808732	     -4.14330465	     -7.87056959	      1.50160132	      0.91918249	     -0.22166389	    -14.89754557	      6.63637160	     -1.62877403	    -19.54977294	     17.17230485	      9.45155289	      0.00000000	     23.94985466	     -1.60992095	     -0.67975123	     -8.33570421	     -1.21894011	    -16.08257423	      0.00000000	    -17.81786169	      2.68316883	      6.65271844
      4.95000000	      0.51647103	     -3.62939968	     -7.56967922	      1.51664655	      0.91972753	     -0.22283017	    -14.56525645	      5.78441102	     -2.33338358	    -21.74579133	     15.26964760	      9.64357032	      0.00000000	     24.12270243	     -0.69044228	      0.20487098	    -10.41795942	     -1.84567533	    -15.82095638	      0.00000000	    -17.86441789	      2.15525342	      6.42073122
      4.96000000	      0.68233937	     -3.12533286	     -7.28450826	      1.53141468	      0.92064455	     -0.22405375	    -14.02345117	      4.91785414	     -2.97185929	    -24.21363914	     13.31132903	      9.80834778	      0.00000000	     24.32601648	      0.22605541	      0.97470322	    -12.61383246	     -2.22551023	    -15.47638667	      0.00000000	    -18.00860448	      1.64484187	      6.28378484
      4.97000000	      0.82557635	     -2.69712400	     -7.04073445	      1.54584427	      0.92177913	     -0.22524844	    -13.24248902	      4.13188326	     -3.42207640	    -26.91093341	     11.42146245	      9.82970363	      0.00000000	     24.58521155	      1.03127449	      1.46038500	    -14.89691716	     -2.07602117	    -14.79410242	      0.00000000	    -18.20829472	      1.23038531	      6.26007252
      4.98000000	      0.99468534	     -2.36839736	     -6.86715770	      1.55990199	      0.92310958	     -0.22634138	    -12.29449017	      3.45004415	     -3.68457077	    -29.76365952	      9.78194419	      9.63629118	      0.00000000	     24.77177477	      1.67402219	      1.60084521	    -17.12226770	     -1.44799284	    -13.86840950	      0.00000000	    -18.52427606	      0.92353352	      6.39417184
      4.99000000	      1.17291845	     -2.11806033	     -6.81698083	      1.57360075	      0.92455598	     -0.22730265	    -11.17232522	      2.83558888	     -3.78386475	    -32.71539637	      8.58595088	      9.39104224	      0.00000000	     24.80010649	      2.16658417	      1.52585168	    -19.09597224	     -0.57736576	    -13.17984507	      0.00000000	    -18.91777145	      0.70337881	      6.65484932
      5.00000000	      1.32556822	     -1.92749647	     -6.88157462	      1.58693919	      0.92605254	     -0.22817108	     -9.86715773	      2.27805497	     -3.78023902	    -35.67250325	      7.91044747	      9.10392058	      0.00000000	     24.64199155	      2.54131192	      1.34408771	    -20.68674116	      0.43516021	    -12.78080131	      0.00000000	    -19.33064196	      0.56729939	      6.99158768
      5.01000000	      1.45109564	     -1.74428005	     -7.05815878	      1.59991187	      0.92763019	     -0.22895600	     -8.40161332	      1.73049987	     -3.70699930	    -38.54679062	      7.78622358	      8.78270240	      0.00000000	     24.25641940	      2.86802063	      1.10714794	    -21.78998914	      1.35957396	    -12.82023553	      0.00000000	    -19.74710952	      0.44621320	      7.37102464
      5.02000000	      1.49043399	     -1.62475313	     -7.26880090	      1.61255255	      0.92925231	     -0.22976452	     -6.77233033	      1.27701284	     -3.65289663	    -41.21274452	      8.06946743	      8.53667765	      0.00000000	     23.74148923	      3.10777300	      0.85077668	    -22.48595019	      2.52081651	    -12.71976371	      0.00000000	    -20.08326797	      0.45371281	      7.66623388
      5.03000000	      1.52974813	     -1.49883761	     -7.51351145	      1.62492074	      0.93110815	     -0.23058980	     -5.09571629	      0.83330822	     -3.63285688	    -43.60435857	      8.67990433	      8.33584620	      0.00000000	     22.98770734	      3.36543968	      0.65134347	    -22.71416050	      3.45653408	    -12.90714792	      0.00000000	    -20.43184988	      0.48154914	      7.85913811
      5.04000000	      1.56319711	     -1.38374684	     -7.72125685	      1.63709207	      0.93321646	     -0.23148474	     -3.40824686	      0.42625341	     -3.72157056	    -45.65713565	      9.45902435	      8.16649887	      0.00000000	     22.05044792	      3.64609527	      0.57128308	    -22.57067844	      4.25072994	    -13.10686809	      0.00000000	    -20.76916031	      0.55776255	      7.93406474
      5.05000000	      1.55693111	     -1.31831818	     -7.82565433	      1.64912342	      0.93549470	     -0.23250969	     -1.70510378	      0.09404391	     -4.00051397	    -47.35567868	     10.36676158	      8.22304019	      0.00000000	     21.03277896	      3.91738894	      0.63814562	    -22.18752003	      4.98694026	    -13.26517092	      0.00000000	    -21.05005467	      0.74715278	      7.83039906
